<mxfile host="app.diagrams.net" agent="Mozilla/5.0 (Macintosh; Intel Mac OS X 10_15_7) AppleWebKit/537.36 (KHTML, like Gecko) Chrome/139.0.0.0 Safari/537.36" version="28.1.1">
  <diagram name="Page-1" id="9dtw_YVFc1t5sriNN40-">
    <mxGraphModel dx="1060" dy="2503" grid="1" gridSize="10" guides="1" tooltips="1" connect="1" arrows="1" fold="1" page="1" pageScale="1" pageWidth="850" pageHeight="1100" math="0" shadow="0">
      <root>
        <mxCell id="0" />
        <mxCell id="1" parent="0" />
        <mxCell id="C-UwI_2ZO8aWPsouuYlW-19" value="&lt;span style=&quot;caret-color: rgb(0, 0, 0); color: rgb(0, 0, 0); font-family: -webkit-standard; font-size: medium; font-style: normal; font-variant-caps: normal; font-weight: 400; letter-spacing: normal; orphans: auto; text-align: start; text-indent: 0px; text-transform: none; white-space: normal; widows: auto; word-spacing: 0px; -webkit-text-stroke-width: 0px; text-decoration: none; display: inline !important; float: none;&quot;&gt;id&lt;/span&gt;" style="ellipse;whiteSpace=wrap;html=1;strokeColor=#d6b656;align=center;verticalAlign=middle;fontFamily=Helvetica;fontSize=12;fontStyle=0;horizontal=1;fillColor=#fff2cc;" vertex="1" parent="1">
          <mxGeometry x="290" y="70" width="80" height="30" as="geometry" />
        </mxCell>
        <mxCell id="C-UwI_2ZO8aWPsouuYlW-20" value="User" style="rounded=0;whiteSpace=wrap;html=1;strokeColor=#82b366;align=center;verticalAlign=middle;fontFamily=Helvetica;fontSize=12;fontStyle=0;horizontal=1;fillColor=#d5e8d4;" vertex="1" parent="1">
          <mxGeometry x="150" y="140" width="120" height="60" as="geometry" />
        </mxCell>
        <mxCell id="C-UwI_2ZO8aWPsouuYlW-31" value="" style="endArrow=none;html=1;rounded=0;fontFamily=Helvetica;fontSize=12;fontColor=default;fontStyle=0;horizontal=1;entryX=0.5;entryY=1;entryDx=0;entryDy=0;exitX=0.75;exitY=0;exitDx=0;exitDy=0;" edge="1" parent="1" source="C-UwI_2ZO8aWPsouuYlW-20" target="C-UwI_2ZO8aWPsouuYlW-19">
          <mxGeometry width="50" height="50" relative="1" as="geometry">
            <mxPoint x="320" y="300" as="sourcePoint" />
            <mxPoint x="370" y="250" as="targetPoint" />
          </mxGeometry>
        </mxCell>
        <mxCell id="C-UwI_2ZO8aWPsouuYlW-32" value="&lt;span style=&quot;caret-color: rgb(0, 0, 0); font-family: -webkit-standard; font-size: medium; text-align: start;&quot;&gt;name&lt;/span&gt;" style="ellipse;whiteSpace=wrap;html=1;strokeColor=#d6b656;align=center;verticalAlign=middle;fontFamily=Helvetica;fontSize=12;fontStyle=0;horizontal=1;fillColor=#fff2cc;" vertex="1" parent="1">
          <mxGeometry x="210" y="58.92" width="80" height="30" as="geometry" />
        </mxCell>
        <mxCell id="C-UwI_2ZO8aWPsouuYlW-33" value="" style="endArrow=none;html=1;rounded=0;fontFamily=Helvetica;fontSize=12;fontColor=default;fontStyle=0;horizontal=1;entryX=0.5;entryY=1;entryDx=0;entryDy=0;exitX=0.5;exitY=0;exitDx=0;exitDy=0;" edge="1" parent="1" target="C-UwI_2ZO8aWPsouuYlW-32" source="C-UwI_2ZO8aWPsouuYlW-20">
          <mxGeometry width="50" height="50" relative="1" as="geometry">
            <mxPoint x="232.4799999999999" y="129.99999999999991" as="sourcePoint" />
            <mxPoint x="290" y="238.92" as="targetPoint" />
          </mxGeometry>
        </mxCell>
        <mxCell id="C-UwI_2ZO8aWPsouuYlW-34" value="&lt;span style=&quot;caret-color: rgb(0, 0, 0); font-family: -webkit-standard; font-size: medium; text-align: start;&quot;&gt;email&lt;/span&gt;" style="ellipse;whiteSpace=wrap;html=1;strokeColor=#d6b656;align=center;verticalAlign=middle;fontFamily=Helvetica;fontSize=12;fontStyle=0;horizontal=1;fillColor=#fff2cc;" vertex="1" parent="1">
          <mxGeometry x="120" y="58.92" width="80" height="30" as="geometry" />
        </mxCell>
        <mxCell id="C-UwI_2ZO8aWPsouuYlW-35" value="" style="endArrow=none;html=1;rounded=0;fontFamily=Helvetica;fontSize=12;fontColor=default;fontStyle=0;horizontal=1;entryX=0.5;entryY=1;entryDx=0;entryDy=0;exitX=0.322;exitY=0.031;exitDx=0;exitDy=0;exitPerimeter=0;" edge="1" parent="1" target="C-UwI_2ZO8aWPsouuYlW-34" source="C-UwI_2ZO8aWPsouuYlW-20">
          <mxGeometry width="50" height="50" relative="1" as="geometry">
            <mxPoint x="190.92000000000007" y="134.14" as="sourcePoint" />
            <mxPoint x="200" y="238.92000000000002" as="targetPoint" />
          </mxGeometry>
        </mxCell>
        <mxCell id="C-UwI_2ZO8aWPsouuYlW-36" value="&lt;span style=&quot;caret-color: rgb(0, 0, 0); font-family: -webkit-standard; font-size: medium; text-align: start;&quot;&gt;password_hash&lt;/span&gt;" style="ellipse;whiteSpace=wrap;html=1;strokeColor=#d6b656;align=center;verticalAlign=middle;fontFamily=Helvetica;fontSize=12;fontStyle=0;horizontal=1;fillColor=#fff2cc;" vertex="1" parent="1">
          <mxGeometry x="10" y="70" width="109" height="40" as="geometry" />
        </mxCell>
        <mxCell id="C-UwI_2ZO8aWPsouuYlW-37" value="" style="endArrow=none;html=1;rounded=0;fontFamily=Helvetica;fontSize=12;fontColor=default;fontStyle=0;horizontal=1;entryX=0.5;entryY=1;entryDx=0;entryDy=0;exitX=0;exitY=0;exitDx=0;exitDy=0;" edge="1" parent="1" target="C-UwI_2ZO8aWPsouuYlW-36" source="C-UwI_2ZO8aWPsouuYlW-20">
          <mxGeometry width="50" height="50" relative="1" as="geometry">
            <mxPoint x="159.00000000000006" y="130" as="sourcePoint" />
            <mxPoint x="120" y="250" as="targetPoint" />
          </mxGeometry>
        </mxCell>
        <mxCell id="C-UwI_2ZO8aWPsouuYlW-38" value="&lt;span style=&quot;caret-color: rgb(0, 0, 0); font-family: -webkit-standard; font-size: medium; text-align: start;&quot;&gt;role&lt;/span&gt;" style="ellipse;whiteSpace=wrap;html=1;strokeColor=#d6b656;align=center;verticalAlign=middle;fontFamily=Helvetica;fontSize=12;fontStyle=0;horizontal=1;fillColor=#fff2cc;" vertex="1" parent="1">
          <mxGeometry x="10" y="130" width="80" height="30" as="geometry" />
        </mxCell>
        <mxCell id="C-UwI_2ZO8aWPsouuYlW-39" value="" style="endArrow=none;html=1;rounded=0;fontFamily=Helvetica;fontSize=12;fontColor=default;fontStyle=0;horizontal=1;entryX=1;entryY=0.5;entryDx=0;entryDy=0;exitX=0;exitY=0.25;exitDx=0;exitDy=0;" edge="1" parent="1" source="C-UwI_2ZO8aWPsouuYlW-20" target="C-UwI_2ZO8aWPsouuYlW-38">
          <mxGeometry width="50" height="50" relative="1" as="geometry">
            <mxPoint x="239" y="163" as="sourcePoint" />
            <mxPoint x="190" y="120" as="targetPoint" />
          </mxGeometry>
        </mxCell>
        <mxCell id="C-UwI_2ZO8aWPsouuYlW-40" value="&lt;span style=&quot;caret-color: rgb(0, 0, 0); font-family: -webkit-standard; font-size: medium; text-align: start;&quot;&gt;status&lt;/span&gt;" style="ellipse;whiteSpace=wrap;html=1;strokeColor=#d6b656;align=center;verticalAlign=middle;fontFamily=Helvetica;fontSize=12;fontStyle=0;horizontal=1;fillColor=#fff2cc;" vertex="1" parent="1">
          <mxGeometry x="10" y="170" width="80" height="30" as="geometry" />
        </mxCell>
        <mxCell id="C-UwI_2ZO8aWPsouuYlW-41" value="" style="endArrow=none;html=1;rounded=0;fontFamily=Helvetica;fontSize=12;fontColor=default;fontStyle=0;horizontal=1;entryX=1;entryY=0.5;entryDx=0;entryDy=0;exitX=0;exitY=0.5;exitDx=0;exitDy=0;" edge="1" parent="1" target="C-UwI_2ZO8aWPsouuYlW-40" source="C-UwI_2ZO8aWPsouuYlW-20">
          <mxGeometry width="50" height="50" relative="1" as="geometry">
            <mxPoint x="170" y="185" as="sourcePoint" />
            <mxPoint x="190" y="160" as="targetPoint" />
          </mxGeometry>
        </mxCell>
        <mxCell id="C-UwI_2ZO8aWPsouuYlW-42" value="&lt;span style=&quot;caret-color: rgb(0, 0, 0); font-family: -webkit-standard; font-size: medium; text-align: start;&quot;&gt;created_at&lt;/span&gt;" style="ellipse;whiteSpace=wrap;html=1;strokeColor=#d6b656;align=center;verticalAlign=middle;fontFamily=Helvetica;fontSize=12;fontStyle=0;horizontal=1;fillColor=#fff2cc;" vertex="1" parent="1">
          <mxGeometry x="10" y="210" width="80" height="30" as="geometry" />
        </mxCell>
        <mxCell id="C-UwI_2ZO8aWPsouuYlW-43" value="" style="endArrow=none;html=1;rounded=0;fontFamily=Helvetica;fontSize=12;fontColor=default;fontStyle=0;horizontal=1;entryX=1;entryY=0.5;entryDx=0;entryDy=0;exitX=0;exitY=0.75;exitDx=0;exitDy=0;" edge="1" parent="1" target="C-UwI_2ZO8aWPsouuYlW-42" source="C-UwI_2ZO8aWPsouuYlW-20">
          <mxGeometry width="50" height="50" relative="1" as="geometry">
            <mxPoint x="180" y="210" as="sourcePoint" />
            <mxPoint x="200" y="210" as="targetPoint" />
          </mxGeometry>
        </mxCell>
        <mxCell id="C-UwI_2ZO8aWPsouuYlW-44" value="&lt;span style=&quot;caret-color: rgb(0, 0, 0); color: rgb(0, 0, 0); font-family: -webkit-standard; font-size: medium; font-style: normal; font-variant-caps: normal; font-weight: 400; letter-spacing: normal; orphans: auto; text-align: start; text-indent: 0px; text-transform: none; white-space: normal; widows: auto; word-spacing: 0px; -webkit-text-stroke-width: 0px; text-decoration: none; display: inline !important; float: none;&quot;&gt;id&lt;/span&gt;" style="ellipse;whiteSpace=wrap;html=1;strokeColor=#d6b656;align=center;verticalAlign=middle;fontFamily=Helvetica;fontSize=12;fontStyle=0;horizontal=1;fillColor=#fff2cc;" vertex="1" parent="1">
          <mxGeometry x="840" y="81.07999999999998" width="80" height="30" as="geometry" />
        </mxCell>
        <mxCell id="C-UwI_2ZO8aWPsouuYlW-45" value="&lt;span style=&quot;caret-color: rgb(0, 0, 0); font-family: -webkit-standard; font-size: medium; text-align: start;&quot;&gt;Product&lt;/span&gt;" style="rounded=0;whiteSpace=wrap;html=1;strokeColor=#82b366;align=center;verticalAlign=middle;fontFamily=Helvetica;fontSize=12;fontStyle=0;horizontal=1;fillColor=#d5e8d4;" vertex="1" parent="1">
          <mxGeometry x="700" y="151.07999999999998" width="120" height="60" as="geometry" />
        </mxCell>
        <mxCell id="C-UwI_2ZO8aWPsouuYlW-46" value="" style="endArrow=none;html=1;rounded=0;fontFamily=Helvetica;fontSize=12;fontColor=default;fontStyle=0;horizontal=1;entryX=0.5;entryY=1;entryDx=0;entryDy=0;exitX=0.75;exitY=0;exitDx=0;exitDy=0;" edge="1" parent="1" source="C-UwI_2ZO8aWPsouuYlW-45" target="C-UwI_2ZO8aWPsouuYlW-44">
          <mxGeometry width="50" height="50" relative="1" as="geometry">
            <mxPoint x="870" y="311.0799999999999" as="sourcePoint" />
            <mxPoint x="920" y="261.08" as="targetPoint" />
          </mxGeometry>
        </mxCell>
        <mxCell id="C-UwI_2ZO8aWPsouuYlW-47" value="&lt;span style=&quot;caret-color: rgb(0, 0, 0); font-family: -webkit-standard; font-size: medium; text-align: start;&quot;&gt;category_id&lt;/span&gt;" style="ellipse;whiteSpace=wrap;html=1;strokeColor=#d6b656;align=center;verticalAlign=middle;fontFamily=Helvetica;fontSize=12;fontStyle=0;horizontal=1;fillColor=#fff2cc;" vertex="1" parent="1">
          <mxGeometry x="760" y="70" width="80" height="30" as="geometry" />
        </mxCell>
        <mxCell id="C-UwI_2ZO8aWPsouuYlW-48" value="" style="endArrow=none;html=1;rounded=0;fontFamily=Helvetica;fontSize=12;fontColor=default;fontStyle=0;horizontal=1;entryX=0.5;entryY=1;entryDx=0;entryDy=0;exitX=0.5;exitY=0;exitDx=0;exitDy=0;" edge="1" parent="1" source="C-UwI_2ZO8aWPsouuYlW-45" target="C-UwI_2ZO8aWPsouuYlW-47">
          <mxGeometry width="50" height="50" relative="1" as="geometry">
            <mxPoint x="782.4799999999999" y="141.07999999999993" as="sourcePoint" />
            <mxPoint x="840" y="250" as="targetPoint" />
          </mxGeometry>
        </mxCell>
        <mxCell id="C-UwI_2ZO8aWPsouuYlW-49" value="&lt;span style=&quot;caret-color: rgb(0, 0, 0); font-family: -webkit-standard; font-size: medium; text-align: start;&quot;&gt;name&lt;/span&gt;" style="ellipse;whiteSpace=wrap;html=1;strokeColor=#d6b656;align=center;verticalAlign=middle;fontFamily=Helvetica;fontSize=12;fontStyle=0;horizontal=1;fillColor=#fff2cc;" vertex="1" parent="1">
          <mxGeometry x="670" y="70" width="80" height="30" as="geometry" />
        </mxCell>
        <mxCell id="C-UwI_2ZO8aWPsouuYlW-50" value="" style="endArrow=none;html=1;rounded=0;fontFamily=Helvetica;fontSize=12;fontColor=default;fontStyle=0;horizontal=1;entryX=0.5;entryY=1;entryDx=0;entryDy=0;exitX=0.322;exitY=0.031;exitDx=0;exitDy=0;exitPerimeter=0;" edge="1" parent="1" source="C-UwI_2ZO8aWPsouuYlW-45" target="C-UwI_2ZO8aWPsouuYlW-49">
          <mxGeometry width="50" height="50" relative="1" as="geometry">
            <mxPoint x="740.9200000000001" y="145.21999999999997" as="sourcePoint" />
            <mxPoint x="750" y="250" as="targetPoint" />
          </mxGeometry>
        </mxCell>
        <mxCell id="C-UwI_2ZO8aWPsouuYlW-51" value="&lt;span style=&quot;caret-color: rgb(0, 0, 0); font-family: -webkit-standard; font-size: medium; text-align: start;&quot;&gt;price&lt;/span&gt;" style="ellipse;whiteSpace=wrap;html=1;strokeColor=#d6b656;align=center;verticalAlign=middle;fontFamily=Helvetica;fontSize=12;fontStyle=0;horizontal=1;fillColor=#fff2cc;" vertex="1" parent="1">
          <mxGeometry x="560" y="81.07999999999998" width="109" height="40" as="geometry" />
        </mxCell>
        <mxCell id="C-UwI_2ZO8aWPsouuYlW-52" value="" style="endArrow=none;html=1;rounded=0;fontFamily=Helvetica;fontSize=12;fontColor=default;fontStyle=0;horizontal=1;entryX=0.5;entryY=1;entryDx=0;entryDy=0;exitX=0;exitY=0;exitDx=0;exitDy=0;" edge="1" parent="1" source="C-UwI_2ZO8aWPsouuYlW-45" target="C-UwI_2ZO8aWPsouuYlW-51">
          <mxGeometry width="50" height="50" relative="1" as="geometry">
            <mxPoint x="709" y="141.07999999999998" as="sourcePoint" />
            <mxPoint x="670" y="261.08" as="targetPoint" />
          </mxGeometry>
        </mxCell>
        <mxCell id="C-UwI_2ZO8aWPsouuYlW-60" value="&lt;span style=&quot;caret-color: rgb(0, 0, 0); font-family: -webkit-standard; font-size: medium; text-align: start;&quot;&gt;Address&lt;/span&gt;" style="rounded=0;whiteSpace=wrap;html=1;strokeColor=#82b366;align=center;verticalAlign=middle;fontFamily=Helvetica;fontSize=12;fontStyle=0;horizontal=1;fillColor=#d5e8d4;" vertex="1" parent="1">
          <mxGeometry x="160" y="341.08" width="120" height="60" as="geometry" />
        </mxCell>
        <mxCell id="C-UwI_2ZO8aWPsouuYlW-64" value="&lt;span style=&quot;caret-color: rgb(0, 0, 0); font-family: -webkit-standard; font-size: medium; text-align: start;&quot;&gt;id&lt;/span&gt;" style="ellipse;whiteSpace=wrap;html=1;strokeColor=#d6b656;align=center;verticalAlign=middle;fontFamily=Helvetica;fontSize=12;fontStyle=0;horizontal=1;fillColor=#fff2cc;" vertex="1" parent="1">
          <mxGeometry x="130" y="260" width="80" height="30" as="geometry" />
        </mxCell>
        <mxCell id="C-UwI_2ZO8aWPsouuYlW-65" value="" style="endArrow=none;html=1;rounded=0;fontFamily=Helvetica;fontSize=12;fontColor=default;fontStyle=0;horizontal=1;entryX=0.5;entryY=1;entryDx=0;entryDy=0;exitX=0.322;exitY=0.031;exitDx=0;exitDy=0;exitPerimeter=0;" edge="1" parent="1" source="C-UwI_2ZO8aWPsouuYlW-60" target="C-UwI_2ZO8aWPsouuYlW-64">
          <mxGeometry width="50" height="50" relative="1" as="geometry">
            <mxPoint x="200.92000000000007" y="335.21999999999997" as="sourcePoint" />
            <mxPoint x="210" y="440" as="targetPoint" />
          </mxGeometry>
        </mxCell>
        <mxCell id="C-UwI_2ZO8aWPsouuYlW-66" value="&lt;span style=&quot;caret-color: rgb(0, 0, 0); font-family: -webkit-standard; font-size: medium; text-align: start;&quot;&gt;recipient_name&lt;/span&gt;" style="ellipse;whiteSpace=wrap;html=1;strokeColor=#d6b656;align=center;verticalAlign=middle;fontFamily=Helvetica;fontSize=12;fontStyle=0;horizontal=1;fillColor=#fff2cc;" vertex="1" parent="1">
          <mxGeometry x="20" y="271.08" width="109" height="40" as="geometry" />
        </mxCell>
        <mxCell id="C-UwI_2ZO8aWPsouuYlW-67" value="" style="endArrow=none;html=1;rounded=0;fontFamily=Helvetica;fontSize=12;fontColor=default;fontStyle=0;horizontal=1;entryX=0.5;entryY=1;entryDx=0;entryDy=0;exitX=0;exitY=0;exitDx=0;exitDy=0;" edge="1" parent="1" source="C-UwI_2ZO8aWPsouuYlW-60" target="C-UwI_2ZO8aWPsouuYlW-66">
          <mxGeometry width="50" height="50" relative="1" as="geometry">
            <mxPoint x="169.00000000000006" y="331.08" as="sourcePoint" />
            <mxPoint x="130" y="451.0799999999999" as="targetPoint" />
          </mxGeometry>
        </mxCell>
        <mxCell id="C-UwI_2ZO8aWPsouuYlW-68" value="&lt;span style=&quot;caret-color: rgb(0, 0, 0); font-family: -webkit-standard; font-size: medium; text-align: start;&quot;&gt;user_id&lt;/span&gt;" style="ellipse;whiteSpace=wrap;html=1;strokeColor=#d6b656;align=center;verticalAlign=middle;fontFamily=Helvetica;fontSize=12;fontStyle=0;horizontal=1;fillColor=#fff2cc;" vertex="1" parent="1">
          <mxGeometry x="20" y="331.08" width="80" height="30" as="geometry" />
        </mxCell>
        <mxCell id="C-UwI_2ZO8aWPsouuYlW-69" value="" style="endArrow=none;html=1;rounded=0;fontFamily=Helvetica;fontSize=12;fontColor=default;fontStyle=0;horizontal=1;entryX=1;entryY=0.5;entryDx=0;entryDy=0;exitX=0;exitY=0.25;exitDx=0;exitDy=0;" edge="1" parent="1" source="C-UwI_2ZO8aWPsouuYlW-60" target="C-UwI_2ZO8aWPsouuYlW-68">
          <mxGeometry width="50" height="50" relative="1" as="geometry">
            <mxPoint x="249" y="364.08" as="sourcePoint" />
            <mxPoint x="200" y="321.08" as="targetPoint" />
          </mxGeometry>
        </mxCell>
        <mxCell id="C-UwI_2ZO8aWPsouuYlW-70" value="&lt;span style=&quot;caret-color: rgb(0, 0, 0); font-family: -webkit-standard; font-size: medium; text-align: start;&quot;&gt;phone&lt;/span&gt;" style="ellipse;whiteSpace=wrap;html=1;strokeColor=#d6b656;align=center;verticalAlign=middle;fontFamily=Helvetica;fontSize=12;fontStyle=0;horizontal=1;fillColor=#fff2cc;" vertex="1" parent="1">
          <mxGeometry x="20" y="371.08" width="80" height="30" as="geometry" />
        </mxCell>
        <mxCell id="C-UwI_2ZO8aWPsouuYlW-71" value="" style="endArrow=none;html=1;rounded=0;fontFamily=Helvetica;fontSize=12;fontColor=default;fontStyle=0;horizontal=1;entryX=1;entryY=0.5;entryDx=0;entryDy=0;exitX=0;exitY=0.5;exitDx=0;exitDy=0;" edge="1" parent="1" source="C-UwI_2ZO8aWPsouuYlW-60" target="C-UwI_2ZO8aWPsouuYlW-70">
          <mxGeometry width="50" height="50" relative="1" as="geometry">
            <mxPoint x="180" y="386.08" as="sourcePoint" />
            <mxPoint x="200" y="361.08" as="targetPoint" />
          </mxGeometry>
        </mxCell>
        <mxCell id="C-UwI_2ZO8aWPsouuYlW-72" value="&lt;span style=&quot;caret-color: rgb(0, 0, 0); font-family: -webkit-standard; font-size: medium; text-align: start;&quot;&gt;address_line&lt;/span&gt;" style="ellipse;whiteSpace=wrap;html=1;strokeColor=#d6b656;align=center;verticalAlign=middle;fontFamily=Helvetica;fontSize=12;fontStyle=0;horizontal=1;fillColor=#fff2cc;" vertex="1" parent="1">
          <mxGeometry y="411.08" width="100" height="38.92" as="geometry" />
        </mxCell>
        <mxCell id="C-UwI_2ZO8aWPsouuYlW-73" value="" style="endArrow=none;html=1;rounded=0;fontFamily=Helvetica;fontSize=12;fontColor=default;fontStyle=0;horizontal=1;entryX=1;entryY=0.5;entryDx=0;entryDy=0;exitX=0;exitY=0.75;exitDx=0;exitDy=0;" edge="1" parent="1" source="C-UwI_2ZO8aWPsouuYlW-60" target="C-UwI_2ZO8aWPsouuYlW-72">
          <mxGeometry width="50" height="50" relative="1" as="geometry">
            <mxPoint x="190" y="411.08" as="sourcePoint" />
            <mxPoint x="210" y="411.08" as="targetPoint" />
          </mxGeometry>
        </mxCell>
        <mxCell id="C-UwI_2ZO8aWPsouuYlW-74" value="&lt;span style=&quot;caret-color: rgb(0, 0, 0); font-family: -webkit-standard; font-size: medium; text-align: start;&quot;&gt;city&lt;/span&gt;" style="ellipse;whiteSpace=wrap;html=1;strokeColor=#d6b656;align=center;verticalAlign=middle;fontFamily=Helvetica;fontSize=12;fontStyle=0;horizontal=1;fillColor=#fff2cc;" vertex="1" parent="1">
          <mxGeometry x="10" y="460" width="80" height="30" as="geometry" />
        </mxCell>
        <mxCell id="C-UwI_2ZO8aWPsouuYlW-75" value="" style="endArrow=none;html=1;rounded=0;fontFamily=Helvetica;fontSize=12;fontColor=default;fontStyle=0;horizontal=1;entryX=1;entryY=0.5;entryDx=0;entryDy=0;exitX=0.25;exitY=1;exitDx=0;exitDy=0;" edge="1" parent="1" target="C-UwI_2ZO8aWPsouuYlW-74" source="C-UwI_2ZO8aWPsouuYlW-60">
          <mxGeometry width="50" height="50" relative="1" as="geometry">
            <mxPoint x="150" y="459.92" as="sourcePoint" />
            <mxPoint x="190" y="450" as="targetPoint" />
          </mxGeometry>
        </mxCell>
        <mxCell id="C-UwI_2ZO8aWPsouuYlW-76" value="" style="endArrow=none;html=1;rounded=0;fontFamily=Helvetica;fontSize=12;fontColor=default;fontStyle=0;horizontal=1;entryX=0.5;entryY=1;entryDx=0;entryDy=0;exitX=0.594;exitY=0.051;exitDx=0;exitDy=0;exitPerimeter=0;" edge="1" parent="1" source="C-UwI_2ZO8aWPsouuYlW-60" target="C-UwI_2ZO8aWPsouuYlW-20">
          <mxGeometry width="50" height="50" relative="1" as="geometry">
            <mxPoint x="320" y="460" as="sourcePoint" />
            <mxPoint x="370" y="410" as="targetPoint" />
          </mxGeometry>
        </mxCell>
        <mxCell id="C-UwI_2ZO8aWPsouuYlW-79" value="&lt;span style=&quot;caret-color: rgb(0, 0, 0); font-family: -webkit-standard; font-size: medium; text-align: start;&quot;&gt;stock&lt;/span&gt;" style="ellipse;whiteSpace=wrap;html=1;strokeColor=#d6b656;align=center;verticalAlign=middle;fontFamily=Helvetica;fontSize=12;fontStyle=0;horizontal=1;fillColor=#fff2cc;" vertex="1" parent="1">
          <mxGeometry x="915" y="140" width="80" height="30" as="geometry" />
        </mxCell>
        <mxCell id="C-UwI_2ZO8aWPsouuYlW-80" value="" style="endArrow=none;html=1;rounded=0;fontFamily=Helvetica;fontSize=12;fontColor=default;fontStyle=0;horizontal=1;exitX=1;exitY=0;exitDx=0;exitDy=0;" edge="1" parent="1" source="C-UwI_2ZO8aWPsouuYlW-45">
          <mxGeometry width="50" height="50" relative="1" as="geometry">
            <mxPoint x="1035" y="214.92000000000002" as="sourcePoint" />
            <mxPoint x="915" y="155" as="targetPoint" />
          </mxGeometry>
        </mxCell>
        <mxCell id="C-UwI_2ZO8aWPsouuYlW-81" value="&lt;span style=&quot;caret-color: rgb(0, 0, 0); font-family: -webkit-standard; font-size: medium; text-align: start;&quot;&gt;image_url&lt;/span&gt;" style="ellipse;whiteSpace=wrap;html=1;strokeColor=#d6b656;align=center;verticalAlign=middle;fontFamily=Helvetica;fontSize=12;fontStyle=0;horizontal=1;fillColor=#fff2cc;" vertex="1" parent="1">
          <mxGeometry x="915" y="190" width="80" height="30" as="geometry" />
        </mxCell>
        <mxCell id="C-UwI_2ZO8aWPsouuYlW-82" value="" style="endArrow=none;html=1;rounded=0;fontFamily=Helvetica;fontSize=12;fontColor=default;fontStyle=0;horizontal=1;entryX=0;entryY=0.5;entryDx=0;entryDy=0;exitX=1;exitY=0.5;exitDx=0;exitDy=0;" edge="1" parent="1" target="C-UwI_2ZO8aWPsouuYlW-81" source="C-UwI_2ZO8aWPsouuYlW-45">
          <mxGeometry width="50" height="50" relative="1" as="geometry">
            <mxPoint x="1035" y="229.92000000000002" as="sourcePoint" />
            <mxPoint x="1075" y="220" as="targetPoint" />
          </mxGeometry>
        </mxCell>
        <mxCell id="C-UwI_2ZO8aWPsouuYlW-83" value="&lt;span style=&quot;caret-color: rgb(0, 0, 0); font-family: -webkit-standard; font-size: medium; text-align: start;&quot;&gt;status&lt;/span&gt;" style="ellipse;whiteSpace=wrap;html=1;strokeColor=#d6b656;align=center;verticalAlign=middle;fontFamily=Helvetica;fontSize=12;fontStyle=0;horizontal=1;fillColor=#fff2cc;" vertex="1" parent="1">
          <mxGeometry x="935" y="91.08000000000001" width="80" height="30" as="geometry" />
        </mxCell>
        <mxCell id="C-UwI_2ZO8aWPsouuYlW-84" value="" style="endArrow=none;html=1;rounded=0;fontFamily=Helvetica;fontSize=12;fontColor=default;fontStyle=0;horizontal=1;entryX=0;entryY=0.5;entryDx=0;entryDy=0;exitX=0.911;exitY=0.007;exitDx=0;exitDy=0;exitPerimeter=0;" edge="1" parent="1" target="C-UwI_2ZO8aWPsouuYlW-83" source="C-UwI_2ZO8aWPsouuYlW-45">
          <mxGeometry width="50" height="50" relative="1" as="geometry">
            <mxPoint x="1035" y="244.92000000000002" as="sourcePoint" />
            <mxPoint x="1085" y="270" as="targetPoint" />
          </mxGeometry>
        </mxCell>
        <mxCell id="C-UwI_2ZO8aWPsouuYlW-85" value="&lt;span style=&quot;caret-color: rgb(0, 0, 0); color: rgb(0, 0, 0); font-family: -webkit-standard; font-size: medium; font-style: normal; font-variant-caps: normal; font-weight: 400; letter-spacing: normal; orphans: auto; text-align: start; text-indent: 0px; text-transform: none; white-space: normal; widows: auto; word-spacing: 0px; -webkit-text-stroke-width: 0px; text-decoration: none; display: inline !important; float: none;&quot;&gt;id&lt;/span&gt;" style="ellipse;whiteSpace=wrap;html=1;strokeColor=#d6b656;align=center;verticalAlign=middle;fontFamily=Helvetica;fontSize=12;fontStyle=0;horizontal=1;fillColor=#fff2cc;" vertex="1" parent="1">
          <mxGeometry x="520" y="-71.08" width="80" height="30" as="geometry" />
        </mxCell>
        <mxCell id="C-UwI_2ZO8aWPsouuYlW-86" value="&lt;span style=&quot;caret-color: rgb(0, 0, 0); font-family: -webkit-standard; font-size: medium; text-align: start;&quot;&gt;Category&lt;/span&gt;" style="rounded=0;whiteSpace=wrap;html=1;strokeColor=#82b366;align=center;verticalAlign=middle;fontFamily=Helvetica;fontSize=12;fontStyle=0;horizontal=1;fillColor=#d5e8d4;" vertex="1" parent="1">
          <mxGeometry x="420" y="10" width="120" height="60" as="geometry" />
        </mxCell>
        <mxCell id="C-UwI_2ZO8aWPsouuYlW-87" value="" style="endArrow=none;html=1;rounded=0;fontFamily=Helvetica;fontSize=12;fontColor=default;fontStyle=0;horizontal=1;entryX=0.5;entryY=1;entryDx=0;entryDy=0;exitX=0.75;exitY=0;exitDx=0;exitDy=0;" edge="1" parent="1" source="C-UwI_2ZO8aWPsouuYlW-86" target="C-UwI_2ZO8aWPsouuYlW-85">
          <mxGeometry width="50" height="50" relative="1" as="geometry">
            <mxPoint x="590" y="169.99999999999994" as="sourcePoint" />
            <mxPoint x="640" y="119.99999999999994" as="targetPoint" />
          </mxGeometry>
        </mxCell>
        <mxCell id="C-UwI_2ZO8aWPsouuYlW-88" value="&lt;span style=&quot;caret-color: rgb(0, 0, 0); font-family: -webkit-standard; font-size: medium; text-align: start;&quot;&gt;slug&lt;/span&gt;" style="ellipse;whiteSpace=wrap;html=1;strokeColor=#d6b656;align=center;verticalAlign=middle;fontFamily=Helvetica;fontSize=12;fontStyle=0;horizontal=1;fillColor=#fff2cc;" vertex="1" parent="1">
          <mxGeometry x="430" y="-71.07999999999998" width="80" height="30" as="geometry" />
        </mxCell>
        <mxCell id="C-UwI_2ZO8aWPsouuYlW-89" value="" style="endArrow=none;html=1;rounded=0;fontFamily=Helvetica;fontSize=12;fontColor=default;fontStyle=0;horizontal=1;entryX=0.5;entryY=1;entryDx=0;entryDy=0;exitX=0.5;exitY=0;exitDx=0;exitDy=0;" edge="1" parent="1" source="C-UwI_2ZO8aWPsouuYlW-86" target="C-UwI_2ZO8aWPsouuYlW-88">
          <mxGeometry width="50" height="50" relative="1" as="geometry">
            <mxPoint x="502.4799999999999" y="-5.684341886080802e-14" as="sourcePoint" />
            <mxPoint x="560" y="108.92000000000002" as="targetPoint" />
          </mxGeometry>
        </mxCell>
        <mxCell id="C-UwI_2ZO8aWPsouuYlW-90" value="&lt;span style=&quot;caret-color: rgb(0, 0, 0); font-family: -webkit-standard; font-size: medium; text-align: start;&quot;&gt;name&lt;/span&gt;" style="ellipse;whiteSpace=wrap;html=1;strokeColor=#d6b656;align=center;verticalAlign=middle;fontFamily=Helvetica;fontSize=12;fontStyle=0;horizontal=1;fillColor=#fff2cc;" vertex="1" parent="1">
          <mxGeometry x="310" y="-49.999999999999986" width="80" height="30" as="geometry" />
        </mxCell>
        <mxCell id="C-UwI_2ZO8aWPsouuYlW-91" value="" style="endArrow=none;html=1;rounded=0;fontFamily=Helvetica;fontSize=12;fontColor=default;fontStyle=0;horizontal=1;entryX=0.5;entryY=1;entryDx=0;entryDy=0;" edge="1" parent="1" target="C-UwI_2ZO8aWPsouuYlW-90">
          <mxGeometry width="50" height="50" relative="1" as="geometry">
            <mxPoint x="450" y="10" as="sourcePoint" />
            <mxPoint x="470" y="108.92000000000002" as="targetPoint" />
          </mxGeometry>
        </mxCell>
        <mxCell id="C-UwI_2ZO8aWPsouuYlW-98" value="&lt;span style=&quot;caret-color: rgb(0, 0, 0); font-family: -webkit-standard; font-size: medium; text-align: start;&quot;&gt;status&lt;/span&gt;" style="ellipse;whiteSpace=wrap;html=1;strokeColor=#d6b656;align=center;verticalAlign=middle;fontFamily=Helvetica;fontSize=12;fontStyle=0;horizontal=1;fillColor=#fff2cc;" vertex="1" parent="1">
          <mxGeometry x="600" y="-9.999999999999943" width="80" height="30" as="geometry" />
        </mxCell>
        <mxCell id="C-UwI_2ZO8aWPsouuYlW-99" value="" style="endArrow=none;html=1;rounded=0;fontFamily=Helvetica;fontSize=12;fontColor=default;fontStyle=0;horizontal=1;entryX=0;entryY=0.5;entryDx=0;entryDy=0;" edge="1" parent="1" target="C-UwI_2ZO8aWPsouuYlW-98">
          <mxGeometry width="50" height="50" relative="1" as="geometry">
            <mxPoint x="540" y="10" as="sourcePoint" />
            <mxPoint x="805" y="128.92000000000002" as="targetPoint" />
          </mxGeometry>
        </mxCell>
        <mxCell id="C-UwI_2ZO8aWPsouuYlW-104" value="&lt;span style=&quot;caret-color: rgb(0, 0, 0); color: rgb(0, 0, 0); font-family: -webkit-standard; font-size: medium; font-style: normal; font-variant-caps: normal; font-weight: 400; letter-spacing: normal; orphans: auto; text-align: start; text-indent: 0px; text-transform: none; white-space: normal; widows: auto; word-spacing: 0px; -webkit-text-stroke-width: 0px; text-decoration: none; display: inline !important; float: none;&quot;&gt;id&lt;/span&gt;" style="ellipse;whiteSpace=wrap;html=1;strokeColor=#d6b656;align=center;verticalAlign=middle;fontFamily=Helvetica;fontSize=12;fontStyle=0;horizontal=1;fillColor=#fff2cc;" vertex="1" parent="1">
          <mxGeometry x="1020" y="310.26" width="80" height="30" as="geometry" />
        </mxCell>
        <mxCell id="C-UwI_2ZO8aWPsouuYlW-105" value="&lt;span style=&quot;caret-color: rgb(0, 0, 0); font-family: -webkit-standard; font-size: medium; text-align: start;&quot;&gt;Cart&lt;/span&gt;" style="rounded=0;whiteSpace=wrap;html=1;strokeColor=#82b366;align=center;verticalAlign=middle;fontFamily=Helvetica;fontSize=12;fontStyle=0;horizontal=1;fillColor=#d5e8d4;" vertex="1" parent="1">
          <mxGeometry x="870" y="360.89999999999986" width="120" height="60" as="geometry" />
        </mxCell>
        <mxCell id="C-UwI_2ZO8aWPsouuYlW-106" value="" style="endArrow=none;html=1;rounded=0;fontFamily=Helvetica;fontSize=12;fontColor=default;fontStyle=0;horizontal=1;entryX=0.5;entryY=1;entryDx=0;entryDy=0;exitX=0.75;exitY=0;exitDx=0;exitDy=0;" edge="1" parent="1" source="C-UwI_2ZO8aWPsouuYlW-105" target="C-UwI_2ZO8aWPsouuYlW-104">
          <mxGeometry width="50" height="50" relative="1" as="geometry">
            <mxPoint x="1007.5" y="521.3399999999999" as="sourcePoint" />
            <mxPoint x="1057.5" y="471.3399999999999" as="targetPoint" />
          </mxGeometry>
        </mxCell>
        <mxCell id="C-UwI_2ZO8aWPsouuYlW-107" value="&lt;span style=&quot;caret-color: rgb(0, 0, 0); font-family: -webkit-standard; font-size: medium; text-align: start;&quot;&gt;created_at&lt;/span&gt;" style="ellipse;whiteSpace=wrap;html=1;strokeColor=#d6b656;align=center;verticalAlign=middle;fontFamily=Helvetica;fontSize=12;fontStyle=0;horizontal=1;fillColor=#fff2cc;" vertex="1" parent="1">
          <mxGeometry x="975" y="280.26" width="80" height="30" as="geometry" />
        </mxCell>
        <mxCell id="C-UwI_2ZO8aWPsouuYlW-108" value="" style="endArrow=none;html=1;rounded=0;fontFamily=Helvetica;fontSize=12;fontColor=default;fontStyle=0;horizontal=1;entryX=0.5;entryY=1;entryDx=0;entryDy=0;exitX=0.5;exitY=0;exitDx=0;exitDy=0;" edge="1" parent="1" source="C-UwI_2ZO8aWPsouuYlW-105" target="C-UwI_2ZO8aWPsouuYlW-107">
          <mxGeometry width="50" height="50" relative="1" as="geometry">
            <mxPoint x="919.9799999999999" y="351.3399999999999" as="sourcePoint" />
            <mxPoint x="977.5" y="460.26" as="targetPoint" />
          </mxGeometry>
        </mxCell>
        <mxCell id="C-UwI_2ZO8aWPsouuYlW-109" value="&lt;span style=&quot;caret-color: rgb(0, 0, 0); font-family: -webkit-standard; font-size: medium; text-align: start;&quot;&gt;user_id&lt;/span&gt;" style="ellipse;whiteSpace=wrap;html=1;strokeColor=#d6b656;align=center;verticalAlign=middle;fontFamily=Helvetica;fontSize=12;fontStyle=0;horizontal=1;fillColor=#fff2cc;" vertex="1" parent="1">
          <mxGeometry x="890" y="271.26" width="80" height="30" as="geometry" />
        </mxCell>
        <mxCell id="C-UwI_2ZO8aWPsouuYlW-110" value="" style="endArrow=none;html=1;rounded=0;fontFamily=Helvetica;fontSize=12;fontColor=default;fontStyle=0;horizontal=1;entryX=0.5;entryY=1;entryDx=0;entryDy=0;exitX=0.322;exitY=0.031;exitDx=0;exitDy=0;exitPerimeter=0;" edge="1" parent="1" source="C-UwI_2ZO8aWPsouuYlW-105" target="C-UwI_2ZO8aWPsouuYlW-109">
          <mxGeometry width="50" height="50" relative="1" as="geometry">
            <mxPoint x="878.4200000000001" y="355.48" as="sourcePoint" />
            <mxPoint x="887.5" y="460.26" as="targetPoint" />
          </mxGeometry>
        </mxCell>
        <mxCell id="C-UwI_2ZO8aWPsouuYlW-111" value="&lt;span style=&quot;caret-color: rgb(0, 0, 0); font-family: -webkit-standard; font-size: medium; text-align: start;&quot;&gt;status&lt;/span&gt;" style="ellipse;whiteSpace=wrap;html=1;strokeColor=#d6b656;align=center;verticalAlign=middle;fontFamily=Helvetica;fontSize=12;fontStyle=0;horizontal=1;fillColor=#fff2cc;" vertex="1" parent="1">
          <mxGeometry x="1055" y="390.9000000000001" width="80" height="30" as="geometry" />
        </mxCell>
        <mxCell id="C-UwI_2ZO8aWPsouuYlW-112" value="" style="endArrow=none;html=1;rounded=0;fontFamily=Helvetica;fontSize=12;fontColor=default;fontStyle=0;horizontal=1;entryX=0;entryY=0.5;entryDx=0;entryDy=0;exitX=1;exitY=0.5;exitDx=0;exitDy=0;" edge="1" parent="1" source="C-UwI_2ZO8aWPsouuYlW-105" target="C-UwI_2ZO8aWPsouuYlW-111">
          <mxGeometry width="50" height="50" relative="1" as="geometry">
            <mxPoint x="1172.5" y="455.18000000000006" as="sourcePoint" />
            <mxPoint x="1222.5" y="480.26" as="targetPoint" />
          </mxGeometry>
        </mxCell>
        <mxCell id="C-UwI_2ZO8aWPsouuYlW-114" value="&lt;span style=&quot;caret-color: rgb(0, 0, 0); color: rgb(0, 0, 0); font-family: -webkit-standard; font-size: medium; font-style: normal; font-variant-caps: normal; font-weight: 400; letter-spacing: normal; orphans: auto; text-align: start; text-indent: 0px; text-transform: none; white-space: normal; widows: auto; word-spacing: 0px; -webkit-text-stroke-width: 0px; text-decoration: none; display: inline !important; float: none;&quot;&gt;id&lt;/span&gt;" style="ellipse;whiteSpace=wrap;html=1;strokeColor=#d6b656;align=center;verticalAlign=middle;fontFamily=Helvetica;fontSize=12;fontStyle=0;horizontal=1;fillColor=#fff2cc;" vertex="1" parent="1">
          <mxGeometry x="1041.4957802750462" y="480.00000000000006" width="80" height="30" as="geometry" />
        </mxCell>
        <mxCell id="C-UwI_2ZO8aWPsouuYlW-115" value="&lt;span style=&quot;caret-color: rgb(0, 0, 0); font-family: -webkit-standard; font-size: medium; text-align: start;&quot;&gt;CartItem&lt;/span&gt;" style="rounded=0;whiteSpace=wrap;html=1;strokeColor=#82b366;align=center;verticalAlign=middle;fontFamily=Helvetica;fontSize=12;fontStyle=0;horizontal=1;fillColor=#d5e8d4;" vertex="1" parent="1">
          <mxGeometry x="867.4957802750462" y="540.9999999999999" width="120" height="60" as="geometry" />
        </mxCell>
        <mxCell id="C-UwI_2ZO8aWPsouuYlW-116" value="" style="endArrow=none;html=1;rounded=0;fontFamily=Helvetica;fontSize=12;fontColor=default;fontStyle=0;horizontal=1;entryX=0.5;entryY=1;entryDx=0;entryDy=0;exitX=0.75;exitY=0;exitDx=0;exitDy=0;" edge="1" parent="1" source="C-UwI_2ZO8aWPsouuYlW-115" target="C-UwI_2ZO8aWPsouuYlW-114">
          <mxGeometry width="50" height="50" relative="1" as="geometry">
            <mxPoint x="1028.9957802750462" y="691.0799999999999" as="sourcePoint" />
            <mxPoint x="1078.9957802750462" y="641.0799999999999" as="targetPoint" />
          </mxGeometry>
        </mxCell>
        <mxCell id="C-UwI_2ZO8aWPsouuYlW-117" value="&lt;span style=&quot;caret-color: rgb(0, 0, 0); font-family: -webkit-standard; font-size: medium; text-align: start;&quot;&gt;product_id&lt;/span&gt;" style="ellipse;whiteSpace=wrap;html=1;strokeColor=#d6b656;align=center;verticalAlign=middle;fontFamily=Helvetica;fontSize=12;fontStyle=0;horizontal=1;fillColor=#fff2cc;" vertex="1" parent="1">
          <mxGeometry x="967.4957802750462" y="450.00000000000006" width="80" height="30" as="geometry" />
        </mxCell>
        <mxCell id="C-UwI_2ZO8aWPsouuYlW-118" value="" style="endArrow=none;html=1;rounded=0;fontFamily=Helvetica;fontSize=12;fontColor=default;fontStyle=0;horizontal=1;entryX=0.5;entryY=1;entryDx=0;entryDy=0;exitX=0.5;exitY=0;exitDx=0;exitDy=0;" edge="1" parent="1" source="C-UwI_2ZO8aWPsouuYlW-115" target="C-UwI_2ZO8aWPsouuYlW-117">
          <mxGeometry width="50" height="50" relative="1" as="geometry">
            <mxPoint x="941.4757802750461" y="521.0799999999999" as="sourcePoint" />
            <mxPoint x="998.9957802750462" y="630" as="targetPoint" />
          </mxGeometry>
        </mxCell>
        <mxCell id="C-UwI_2ZO8aWPsouuYlW-121" value="&lt;span style=&quot;caret-color: rgb(0, 0, 0); font-family: -webkit-standard; font-size: medium; text-align: start;&quot;&gt;quantity&lt;/span&gt;" style="ellipse;whiteSpace=wrap;html=1;strokeColor=#d6b656;align=center;verticalAlign=middle;fontFamily=Helvetica;fontSize=12;fontStyle=0;horizontal=1;fillColor=#fff2cc;" vertex="1" parent="1">
          <mxGeometry x="1076.4957802750462" y="541.0000000000001" width="80" height="30" as="geometry" />
        </mxCell>
        <mxCell id="C-UwI_2ZO8aWPsouuYlW-122" value="" style="endArrow=none;html=1;rounded=0;fontFamily=Helvetica;fontSize=12;fontColor=default;fontStyle=0;horizontal=1;entryX=0;entryY=0.5;entryDx=0;entryDy=0;exitX=1;exitY=0.5;exitDx=0;exitDy=0;" edge="1" parent="1" source="C-UwI_2ZO8aWPsouuYlW-115" target="C-UwI_2ZO8aWPsouuYlW-121">
          <mxGeometry width="50" height="50" relative="1" as="geometry">
            <mxPoint x="1193.9957802750462" y="624.9200000000001" as="sourcePoint" />
            <mxPoint x="1243.9957802750462" y="650" as="targetPoint" />
          </mxGeometry>
        </mxCell>
        <mxCell id="C-UwI_2ZO8aWPsouuYlW-124" value="&lt;span style=&quot;caret-color: rgb(0, 0, 0); font-family: -webkit-standard; font-size: medium; text-align: start;&quot;&gt;cart_id&lt;/span&gt;" style="ellipse;whiteSpace=wrap;html=1;strokeColor=#d6b656;align=center;verticalAlign=middle;fontFamily=Helvetica;fontSize=12;fontStyle=0;horizontal=1;fillColor=#fff2cc;" vertex="1" parent="1">
          <mxGeometry x="1082.5" y="601" width="80" height="30" as="geometry" />
        </mxCell>
        <mxCell id="C-UwI_2ZO8aWPsouuYlW-125" value="" style="endArrow=none;html=1;rounded=0;fontFamily=Helvetica;fontSize=12;fontColor=default;fontStyle=0;horizontal=1;entryX=0;entryY=0.5;entryDx=0;entryDy=0;exitX=1;exitY=0.75;exitDx=0;exitDy=0;" edge="1" parent="1" target="C-UwI_2ZO8aWPsouuYlW-124" source="C-UwI_2ZO8aWPsouuYlW-115">
          <mxGeometry width="50" height="50" relative="1" as="geometry">
            <mxPoint x="1051.5042197249538" y="682" as="sourcePoint" />
            <mxPoint x="1030" y="780" as="targetPoint" />
          </mxGeometry>
        </mxCell>
        <mxCell id="C-UwI_2ZO8aWPsouuYlW-127" value="&lt;span style=&quot;caret-color: rgb(0, 0, 0); font-family: -webkit-standard; font-size: medium; text-align: start;&quot;&gt;price&lt;/span&gt;" style="ellipse;whiteSpace=wrap;html=1;strokeColor=#d6b656;align=center;verticalAlign=middle;fontFamily=Helvetica;fontSize=12;fontStyle=0;horizontal=1;fillColor=#fff2cc;" vertex="1" parent="1">
          <mxGeometry x="1052.5" y="646" width="80" height="30" as="geometry" />
        </mxCell>
        <mxCell id="C-UwI_2ZO8aWPsouuYlW-128" value="" style="endArrow=none;html=1;rounded=0;fontFamily=Helvetica;fontSize=12;fontColor=default;fontStyle=0;horizontal=1;entryX=0;entryY=0.5;entryDx=0;entryDy=0;exitX=0.75;exitY=1;exitDx=0;exitDy=0;" edge="1" parent="1" target="C-UwI_2ZO8aWPsouuYlW-127" source="C-UwI_2ZO8aWPsouuYlW-115">
          <mxGeometry width="50" height="50" relative="1" as="geometry">
            <mxPoint x="981.5" y="621" as="sourcePoint" />
            <mxPoint x="1000" y="825" as="targetPoint" />
          </mxGeometry>
        </mxCell>
        <mxCell id="C-UwI_2ZO8aWPsouuYlW-130" value="&lt;span style=&quot;caret-color: rgb(0, 0, 0); font-family: -webkit-standard; font-size: medium; text-align: start;&quot;&gt;OrderItem&lt;/span&gt;" style="rounded=0;whiteSpace=wrap;html=1;strokeColor=#82b366;align=center;verticalAlign=middle;fontFamily=Helvetica;fontSize=12;fontStyle=0;horizontal=1;fillColor=#d5e8d4;" vertex="1" parent="1">
          <mxGeometry x="200" y="601.0799999999999" width="120" height="60" as="geometry" />
        </mxCell>
        <mxCell id="C-UwI_2ZO8aWPsouuYlW-131" value="&lt;span style=&quot;caret-color: rgb(0, 0, 0); font-family: -webkit-standard; font-size: medium; text-align: start;&quot;&gt;id&lt;/span&gt;" style="ellipse;whiteSpace=wrap;html=1;strokeColor=#d6b656;align=center;verticalAlign=middle;fontFamily=Helvetica;fontSize=12;fontStyle=0;horizontal=1;fillColor=#fff2cc;" vertex="1" parent="1">
          <mxGeometry x="120" y="520" width="80" height="30" as="geometry" />
        </mxCell>
        <mxCell id="C-UwI_2ZO8aWPsouuYlW-132" value="" style="endArrow=none;html=1;rounded=0;fontFamily=Helvetica;fontSize=12;fontColor=default;fontStyle=0;horizontal=1;entryX=0.5;entryY=1;entryDx=0;entryDy=0;exitX=0.322;exitY=0.031;exitDx=0;exitDy=0;exitPerimeter=0;" edge="1" parent="1" source="C-UwI_2ZO8aWPsouuYlW-130" target="C-UwI_2ZO8aWPsouuYlW-131">
          <mxGeometry width="50" height="50" relative="1" as="geometry">
            <mxPoint x="190.92000000000007" y="595.22" as="sourcePoint" />
            <mxPoint x="200" y="700" as="targetPoint" />
          </mxGeometry>
        </mxCell>
        <mxCell id="C-UwI_2ZO8aWPsouuYlW-133" value="&lt;span style=&quot;caret-color: rgb(0, 0, 0); font-family: -webkit-standard; font-size: medium; text-align: start;&quot;&gt;order_id&lt;/span&gt;" style="ellipse;whiteSpace=wrap;html=1;strokeColor=#d6b656;align=center;verticalAlign=middle;fontFamily=Helvetica;fontSize=12;fontStyle=0;horizontal=1;fillColor=#fff2cc;" vertex="1" parent="1">
          <mxGeometry x="10" y="531.0799999999999" width="109" height="40" as="geometry" />
        </mxCell>
        <mxCell id="C-UwI_2ZO8aWPsouuYlW-134" value="" style="endArrow=none;html=1;rounded=0;fontFamily=Helvetica;fontSize=12;fontColor=default;fontStyle=0;horizontal=1;entryX=0.5;entryY=1;entryDx=0;entryDy=0;exitX=0;exitY=0;exitDx=0;exitDy=0;" edge="1" parent="1" source="C-UwI_2ZO8aWPsouuYlW-130" target="C-UwI_2ZO8aWPsouuYlW-133">
          <mxGeometry width="50" height="50" relative="1" as="geometry">
            <mxPoint x="159" y="591.0799999999999" as="sourcePoint" />
            <mxPoint x="120" y="711.0799999999999" as="targetPoint" />
          </mxGeometry>
        </mxCell>
        <mxCell id="C-UwI_2ZO8aWPsouuYlW-135" value="&lt;span style=&quot;caret-color: rgb(0, 0, 0); font-family: -webkit-standard; font-size: medium; text-align: start;&quot;&gt;product_id&lt;/span&gt;" style="ellipse;whiteSpace=wrap;html=1;strokeColor=#d6b656;align=center;verticalAlign=middle;fontFamily=Helvetica;fontSize=12;fontStyle=0;horizontal=1;fillColor=#fff2cc;" vertex="1" parent="1">
          <mxGeometry x="10" y="591.0799999999999" width="80" height="30" as="geometry" />
        </mxCell>
        <mxCell id="C-UwI_2ZO8aWPsouuYlW-136" value="" style="endArrow=none;html=1;rounded=0;fontFamily=Helvetica;fontSize=12;fontColor=default;fontStyle=0;horizontal=1;entryX=1;entryY=0.5;entryDx=0;entryDy=0;exitX=0;exitY=0.25;exitDx=0;exitDy=0;" edge="1" parent="1" source="C-UwI_2ZO8aWPsouuYlW-130" target="C-UwI_2ZO8aWPsouuYlW-135">
          <mxGeometry width="50" height="50" relative="1" as="geometry">
            <mxPoint x="239" y="624.0799999999999" as="sourcePoint" />
            <mxPoint x="190" y="581.0799999999999" as="targetPoint" />
          </mxGeometry>
        </mxCell>
        <mxCell id="C-UwI_2ZO8aWPsouuYlW-137" value="&lt;span style=&quot;caret-color: rgb(0, 0, 0); font-family: -webkit-standard; font-size: medium; text-align: start;&quot;&gt;product_name&lt;/span&gt;" style="ellipse;whiteSpace=wrap;html=1;strokeColor=#d6b656;align=center;verticalAlign=middle;fontFamily=Helvetica;fontSize=12;fontStyle=0;horizontal=1;fillColor=#fff2cc;" vertex="1" parent="1">
          <mxGeometry x="10" y="631.08" width="100" height="38.92" as="geometry" />
        </mxCell>
        <mxCell id="C-UwI_2ZO8aWPsouuYlW-138" value="" style="endArrow=none;html=1;rounded=0;fontFamily=Helvetica;fontSize=12;fontColor=default;fontStyle=0;horizontal=1;entryX=1;entryY=0.5;entryDx=0;entryDy=0;exitX=0;exitY=0.5;exitDx=0;exitDy=0;" edge="1" parent="1" source="C-UwI_2ZO8aWPsouuYlW-130" target="C-UwI_2ZO8aWPsouuYlW-137">
          <mxGeometry width="50" height="50" relative="1" as="geometry">
            <mxPoint x="170" y="646.0799999999999" as="sourcePoint" />
            <mxPoint x="190" y="621.0799999999999" as="targetPoint" />
          </mxGeometry>
        </mxCell>
        <mxCell id="C-UwI_2ZO8aWPsouuYlW-140" value="&lt;span style=&quot;caret-color: rgb(0, 0, 0); font-family: -webkit-standard; font-size: medium; text-align: start;&quot;&gt;price&lt;/span&gt;" style="ellipse;whiteSpace=wrap;html=1;strokeColor=#d6b656;align=center;verticalAlign=middle;fontFamily=Helvetica;fontSize=12;fontStyle=0;horizontal=1;fillColor=#fff2cc;" vertex="1" parent="1">
          <mxGeometry x="20" y="690" width="80" height="30" as="geometry" />
        </mxCell>
        <mxCell id="C-UwI_2ZO8aWPsouuYlW-141" value="" style="endArrow=none;html=1;rounded=0;fontFamily=Helvetica;fontSize=12;fontColor=default;fontStyle=0;horizontal=1;entryX=1;entryY=0.5;entryDx=0;entryDy=0;exitX=0.25;exitY=1;exitDx=0;exitDy=0;" edge="1" parent="1" source="C-UwI_2ZO8aWPsouuYlW-130" target="C-UwI_2ZO8aWPsouuYlW-140">
          <mxGeometry width="50" height="50" relative="1" as="geometry">
            <mxPoint x="140" y="719.9200000000001" as="sourcePoint" />
            <mxPoint x="180" y="710" as="targetPoint" />
          </mxGeometry>
        </mxCell>
        <mxCell id="C-UwI_2ZO8aWPsouuYlW-142" value="&lt;span style=&quot;caret-color: rgb(0, 0, 0); font-family: -webkit-standard; font-size: medium; text-align: start;&quot;&gt;quantity&lt;/span&gt;" style="ellipse;whiteSpace=wrap;html=1;strokeColor=#d6b656;align=center;verticalAlign=middle;fontFamily=Helvetica;fontSize=12;fontStyle=0;horizontal=1;fillColor=#fff2cc;" vertex="1" parent="1">
          <mxGeometry x="20" y="749" width="80" height="30" as="geometry" />
        </mxCell>
        <mxCell id="C-UwI_2ZO8aWPsouuYlW-143" value="" style="endArrow=none;html=1;rounded=0;fontFamily=Helvetica;fontSize=12;fontColor=default;fontStyle=0;horizontal=1;entryX=1;entryY=0.5;entryDx=0;entryDy=0;exitX=0.342;exitY=0.992;exitDx=0;exitDy=0;exitPerimeter=0;" edge="1" parent="1" target="C-UwI_2ZO8aWPsouuYlW-142" source="C-UwI_2ZO8aWPsouuYlW-130">
          <mxGeometry width="50" height="50" relative="1" as="geometry">
            <mxPoint x="230" y="720" as="sourcePoint" />
            <mxPoint x="180" y="769" as="targetPoint" />
          </mxGeometry>
        </mxCell>
        <mxCell id="C-UwI_2ZO8aWPsouuYlW-144" value="&lt;span style=&quot;caret-color: rgb(0, 0, 0); font-family: -webkit-standard; font-size: medium; text-align: start;&quot;&gt;subtotal&lt;/span&gt;" style="ellipse;whiteSpace=wrap;html=1;strokeColor=#d6b656;align=center;verticalAlign=middle;fontFamily=Helvetica;fontSize=12;fontStyle=0;horizontal=1;fillColor=#fff2cc;" vertex="1" parent="1">
          <mxGeometry x="20" y="808" width="80" height="30" as="geometry" />
        </mxCell>
        <mxCell id="C-UwI_2ZO8aWPsouuYlW-145" value="" style="endArrow=none;html=1;rounded=0;fontFamily=Helvetica;fontSize=12;fontColor=default;fontStyle=0;horizontal=1;entryX=1;entryY=0.5;entryDx=0;entryDy=0;exitX=0.44;exitY=1.051;exitDx=0;exitDy=0;exitPerimeter=0;" edge="1" parent="1" target="C-UwI_2ZO8aWPsouuYlW-144" source="C-UwI_2ZO8aWPsouuYlW-130">
          <mxGeometry width="50" height="50" relative="1" as="geometry">
            <mxPoint x="241" y="720" as="sourcePoint" />
            <mxPoint x="180" y="828" as="targetPoint" />
          </mxGeometry>
        </mxCell>
        <mxCell id="C-UwI_2ZO8aWPsouuYlW-158" value="&lt;span style=&quot;caret-color: rgb(0, 0, 0); font-family: -webkit-standard; font-size: medium; text-align: start;&quot;&gt;Payment&lt;/span&gt;" style="rounded=0;whiteSpace=wrap;html=1;strokeColor=#82b366;align=center;verticalAlign=middle;fontFamily=Helvetica;fontSize=12;fontStyle=0;horizontal=1;fillColor=#d5e8d4;" vertex="1" parent="1">
          <mxGeometry x="430" y="771.0799999999999" width="120" height="60" as="geometry" />
        </mxCell>
        <mxCell id="C-UwI_2ZO8aWPsouuYlW-159" value="&lt;span style=&quot;caret-color: rgb(0, 0, 0); font-family: -webkit-standard; font-size: medium; text-align: start;&quot;&gt;id&lt;/span&gt;" style="ellipse;whiteSpace=wrap;html=1;strokeColor=#d6b656;align=center;verticalAlign=middle;fontFamily=Helvetica;fontSize=12;fontStyle=0;horizontal=1;fillColor=#fff2cc;" vertex="1" parent="1">
          <mxGeometry x="254.5" y="720" width="80" height="30" as="geometry" />
        </mxCell>
        <mxCell id="C-UwI_2ZO8aWPsouuYlW-160" value="" style="endArrow=none;html=1;rounded=0;fontFamily=Helvetica;fontSize=12;fontColor=default;fontStyle=0;horizontal=1;entryX=1;entryY=0.5;entryDx=0;entryDy=0;" edge="1" parent="1" target="C-UwI_2ZO8aWPsouuYlW-159">
          <mxGeometry width="50" height="50" relative="1" as="geometry">
            <mxPoint x="450" y="770" as="sourcePoint" />
            <mxPoint x="430" y="870" as="targetPoint" />
          </mxGeometry>
        </mxCell>
        <mxCell id="C-UwI_2ZO8aWPsouuYlW-161" value="&lt;span style=&quot;caret-color: rgb(0, 0, 0); font-family: -webkit-standard; font-size: medium; text-align: start;&quot;&gt;order_id&lt;/span&gt;" style="ellipse;whiteSpace=wrap;html=1;strokeColor=#d6b656;align=center;verticalAlign=middle;fontFamily=Helvetica;fontSize=12;fontStyle=0;horizontal=1;fillColor=#fff2cc;" vertex="1" parent="1">
          <mxGeometry x="200" y="767.9999999999999" width="109" height="40" as="geometry" />
        </mxCell>
        <mxCell id="C-UwI_2ZO8aWPsouuYlW-162" value="" style="endArrow=none;html=1;rounded=0;fontFamily=Helvetica;fontSize=12;fontColor=default;fontStyle=0;horizontal=1;entryX=1;entryY=0.5;entryDx=0;entryDy=0;exitX=0;exitY=0;exitDx=0;exitDy=0;" edge="1" parent="1" source="C-UwI_2ZO8aWPsouuYlW-158" target="C-UwI_2ZO8aWPsouuYlW-161">
          <mxGeometry width="50" height="50" relative="1" as="geometry">
            <mxPoint x="389" y="761.0799999999999" as="sourcePoint" />
            <mxPoint x="350" y="881.0799999999999" as="targetPoint" />
          </mxGeometry>
        </mxCell>
        <mxCell id="C-UwI_2ZO8aWPsouuYlW-163" value="&lt;span style=&quot;caret-color: rgb(0, 0, 0); font-family: -webkit-standard; font-size: medium; text-align: start;&quot;&gt;gateway&lt;/span&gt;" style="ellipse;whiteSpace=wrap;html=1;strokeColor=#d6b656;align=center;verticalAlign=middle;fontFamily=Helvetica;fontSize=12;fontStyle=0;horizontal=1;fillColor=#fff2cc;" vertex="1" parent="1">
          <mxGeometry x="230" y="821.0799999999999" width="80" height="30" as="geometry" />
        </mxCell>
        <mxCell id="C-UwI_2ZO8aWPsouuYlW-164" value="" style="endArrow=none;html=1;rounded=0;fontFamily=Helvetica;fontSize=12;fontColor=default;fontStyle=0;horizontal=1;entryX=1;entryY=0.5;entryDx=0;entryDy=0;exitX=0;exitY=0.25;exitDx=0;exitDy=0;" edge="1" parent="1" source="C-UwI_2ZO8aWPsouuYlW-158" target="C-UwI_2ZO8aWPsouuYlW-163">
          <mxGeometry width="50" height="50" relative="1" as="geometry">
            <mxPoint x="469" y="794.0799999999999" as="sourcePoint" />
            <mxPoint x="420" y="751.0799999999999" as="targetPoint" />
          </mxGeometry>
        </mxCell>
        <mxCell id="C-UwI_2ZO8aWPsouuYlW-165" value="&lt;span style=&quot;caret-color: rgb(0, 0, 0); font-family: -webkit-standard; font-size: medium; text-align: start;&quot;&gt;amount&lt;/span&gt;" style="ellipse;whiteSpace=wrap;html=1;strokeColor=#d6b656;align=center;verticalAlign=middle;fontFamily=Helvetica;fontSize=12;fontStyle=0;horizontal=1;fillColor=#fff2cc;" vertex="1" parent="1">
          <mxGeometry x="234.5" y="861.08" width="100" height="38.92" as="geometry" />
        </mxCell>
        <mxCell id="C-UwI_2ZO8aWPsouuYlW-166" value="" style="endArrow=none;html=1;rounded=0;fontFamily=Helvetica;fontSize=12;fontColor=default;fontStyle=0;horizontal=1;entryX=1;entryY=0.5;entryDx=0;entryDy=0;exitX=0;exitY=0.5;exitDx=0;exitDy=0;" edge="1" parent="1" source="C-UwI_2ZO8aWPsouuYlW-158" target="C-UwI_2ZO8aWPsouuYlW-165">
          <mxGeometry width="50" height="50" relative="1" as="geometry">
            <mxPoint x="400" y="816.0799999999999" as="sourcePoint" />
            <mxPoint x="420" y="791.0799999999999" as="targetPoint" />
          </mxGeometry>
        </mxCell>
        <mxCell id="C-UwI_2ZO8aWPsouuYlW-167" value="&lt;span style=&quot;caret-color: rgb(0, 0, 0); font-family: -webkit-standard; font-size: medium; text-align: start;&quot;&gt;status&lt;/span&gt;" style="ellipse;whiteSpace=wrap;html=1;strokeColor=#d6b656;align=center;verticalAlign=middle;fontFamily=Helvetica;fontSize=12;fontStyle=0;horizontal=1;fillColor=#fff2cc;" vertex="1" parent="1">
          <mxGeometry x="290" y="919" width="80" height="30" as="geometry" />
        </mxCell>
        <mxCell id="C-UwI_2ZO8aWPsouuYlW-168" value="" style="endArrow=none;html=1;rounded=0;fontFamily=Helvetica;fontSize=12;fontColor=default;fontStyle=0;horizontal=1;entryX=1;entryY=0.5;entryDx=0;entryDy=0;exitX=0.25;exitY=1;exitDx=0;exitDy=0;" edge="1" parent="1" source="C-UwI_2ZO8aWPsouuYlW-158" target="C-UwI_2ZO8aWPsouuYlW-167">
          <mxGeometry width="50" height="50" relative="1" as="geometry">
            <mxPoint x="370" y="889.9200000000001" as="sourcePoint" />
            <mxPoint x="410" y="880" as="targetPoint" />
          </mxGeometry>
        </mxCell>
        <mxCell id="C-UwI_2ZO8aWPsouuYlW-169" value="&lt;span style=&quot;caret-color: rgb(0, 0, 0); font-family: -webkit-standard; font-size: medium; text-align: start;&quot;&gt;request_id&lt;/span&gt;" style="ellipse;whiteSpace=wrap;html=1;strokeColor=#d6b656;align=center;verticalAlign=middle;fontFamily=Helvetica;fontSize=12;fontStyle=0;horizontal=1;fillColor=#fff2cc;" vertex="1" parent="1">
          <mxGeometry x="390" y="949" width="80" height="30" as="geometry" />
        </mxCell>
        <mxCell id="C-UwI_2ZO8aWPsouuYlW-170" value="" style="endArrow=none;html=1;rounded=0;fontFamily=Helvetica;fontSize=12;fontColor=default;fontStyle=0;horizontal=1;entryX=0.5;entryY=0;entryDx=0;entryDy=0;exitX=0.342;exitY=0.992;exitDx=0;exitDy=0;exitPerimeter=0;" edge="1" parent="1" source="C-UwI_2ZO8aWPsouuYlW-158" target="C-UwI_2ZO8aWPsouuYlW-169">
          <mxGeometry width="50" height="50" relative="1" as="geometry">
            <mxPoint x="460" y="890" as="sourcePoint" />
            <mxPoint x="410" y="939" as="targetPoint" />
          </mxGeometry>
        </mxCell>
        <mxCell id="C-UwI_2ZO8aWPsouuYlW-171" value="&lt;span style=&quot;caret-color: rgb(0, 0, 0); font-family: -webkit-standard; font-size: medium; text-align: start;&quot;&gt;trans_id&lt;/span&gt;" style="ellipse;whiteSpace=wrap;html=1;strokeColor=#d6b656;align=center;verticalAlign=middle;fontFamily=Helvetica;fontSize=12;fontStyle=0;horizontal=1;fillColor=#fff2cc;" vertex="1" parent="1">
          <mxGeometry x="500" y="949" width="80" height="30" as="geometry" />
        </mxCell>
        <mxCell id="C-UwI_2ZO8aWPsouuYlW-172" value="" style="endArrow=none;html=1;rounded=0;fontFamily=Helvetica;fontSize=12;fontColor=default;fontStyle=0;horizontal=1;entryX=0.5;entryY=0;entryDx=0;entryDy=0;exitX=0.5;exitY=1;exitDx=0;exitDy=0;" edge="1" parent="1" source="C-UwI_2ZO8aWPsouuYlW-158" target="C-UwI_2ZO8aWPsouuYlW-171">
          <mxGeometry width="50" height="50" relative="1" as="geometry">
            <mxPoint x="471" y="890" as="sourcePoint" />
            <mxPoint x="410" y="998" as="targetPoint" />
          </mxGeometry>
        </mxCell>
        <mxCell id="C-UwI_2ZO8aWPsouuYlW-175" value="&lt;span style=&quot;caret-color: rgb(0, 0, 0); font-family: -webkit-standard; font-size: medium; text-align: start;&quot;&gt;Order&lt;/span&gt;" style="rounded=0;whiteSpace=wrap;html=1;strokeColor=#82b366;align=center;verticalAlign=middle;fontFamily=Helvetica;fontSize=12;fontStyle=0;horizontal=1;fillColor=#d5e8d4;" vertex="1" parent="1">
          <mxGeometry x="455" y="450" width="120" height="60" as="geometry" />
        </mxCell>
        <mxCell id="C-UwI_2ZO8aWPsouuYlW-178" value="&lt;span style=&quot;caret-color: rgb(0, 0, 0); font-family: -webkit-standard; font-size: medium; text-align: start;&quot;&gt;id&lt;/span&gt;" style="ellipse;whiteSpace=wrap;html=1;strokeColor=#d6b656;align=center;verticalAlign=middle;fontFamily=Helvetica;fontSize=12;fontStyle=0;horizontal=1;fillColor=#fff2cc;" vertex="1" parent="1">
          <mxGeometry x="450" y="338.67999999999995" width="100" height="43" as="geometry" />
        </mxCell>
        <mxCell id="C-UwI_2ZO8aWPsouuYlW-179" value="" style="endArrow=none;html=1;rounded=0;fontFamily=Helvetica;fontSize=12;fontColor=default;fontStyle=0;horizontal=1;entryX=0.5;entryY=1;entryDx=0;entryDy=0;exitX=0.5;exitY=0;exitDx=0;exitDy=0;" edge="1" parent="1" target="C-UwI_2ZO8aWPsouuYlW-178" source="C-UwI_2ZO8aWPsouuYlW-175">
          <mxGeometry width="50" height="50" relative="1" as="geometry">
            <mxPoint x="499" y="378.68" as="sourcePoint" />
            <mxPoint x="460" y="475.68" as="targetPoint" />
          </mxGeometry>
        </mxCell>
        <mxCell id="C-UwI_2ZO8aWPsouuYlW-180" value="&lt;span style=&quot;caret-color: rgb(0, 0, 0); font-family: -webkit-standard; font-size: medium; text-align: start;&quot;&gt;user_id&lt;/span&gt;" style="ellipse;whiteSpace=wrap;html=1;strokeColor=#d6b656;align=center;verticalAlign=middle;fontFamily=Helvetica;fontSize=12;fontStyle=0;horizontal=1;fillColor=#fff2cc;" vertex="1" parent="1">
          <mxGeometry x="560" y="331.08" width="100" height="43" as="geometry" />
        </mxCell>
        <mxCell id="C-UwI_2ZO8aWPsouuYlW-181" value="" style="endArrow=none;html=1;rounded=0;fontFamily=Helvetica;fontSize=12;fontColor=default;fontStyle=0;horizontal=1;entryX=0.5;entryY=1;entryDx=0;entryDy=0;exitX=0.75;exitY=0;exitDx=0;exitDy=0;" edge="1" parent="1" target="C-UwI_2ZO8aWPsouuYlW-180" source="C-UwI_2ZO8aWPsouuYlW-175">
          <mxGeometry width="50" height="50" relative="1" as="geometry">
            <mxPoint x="550" y="378.68" as="sourcePoint" />
            <mxPoint x="530" y="485.68" as="targetPoint" />
          </mxGeometry>
        </mxCell>
        <mxCell id="C-UwI_2ZO8aWPsouuYlW-182" value="&lt;span style=&quot;caret-color: rgb(0, 0, 0); font-family: -webkit-standard; font-size: medium; text-align: start;&quot;&gt;address_id&lt;/span&gt;" style="ellipse;whiteSpace=wrap;html=1;strokeColor=#d6b656;align=center;verticalAlign=middle;fontFamily=Helvetica;fontSize=12;fontStyle=0;horizontal=1;fillColor=#fff2cc;" vertex="1" parent="1">
          <mxGeometry x="640" y="381.68" width="100" height="43" as="geometry" />
        </mxCell>
        <mxCell id="C-UwI_2ZO8aWPsouuYlW-183" value="" style="endArrow=none;html=1;rounded=0;fontFamily=Helvetica;fontSize=12;fontColor=default;fontStyle=0;horizontal=1;entryX=0;entryY=0.5;entryDx=0;entryDy=0;exitX=1;exitY=0.25;exitDx=0;exitDy=0;" edge="1" parent="1" target="C-UwI_2ZO8aWPsouuYlW-182" source="C-UwI_2ZO8aWPsouuYlW-175">
          <mxGeometry width="50" height="50" relative="1" as="geometry">
            <mxPoint x="580" y="439.1" as="sourcePoint" />
            <mxPoint x="560" y="546.1" as="targetPoint" />
          </mxGeometry>
        </mxCell>
        <mxCell id="C-UwI_2ZO8aWPsouuYlW-184" value="&lt;span style=&quot;caret-color: rgb(0, 0, 0); font-family: -webkit-standard; font-size: medium; text-align: start;&quot;&gt;total_amount&lt;/span&gt;" style="ellipse;whiteSpace=wrap;html=1;strokeColor=#d6b656;align=center;verticalAlign=middle;fontFamily=Helvetica;fontSize=12;fontStyle=0;horizontal=1;fillColor=#fff2cc;" vertex="1" parent="1">
          <mxGeometry x="650" y="437" width="100" height="43" as="geometry" />
        </mxCell>
        <mxCell id="C-UwI_2ZO8aWPsouuYlW-185" value="" style="endArrow=none;html=1;rounded=0;fontFamily=Helvetica;fontSize=12;fontColor=default;fontStyle=0;horizontal=1;entryX=0;entryY=0.5;entryDx=0;entryDy=0;exitX=1;exitY=0.5;exitDx=0;exitDy=0;" edge="1" parent="1" target="C-UwI_2ZO8aWPsouuYlW-184" source="C-UwI_2ZO8aWPsouuYlW-175">
          <mxGeometry width="50" height="50" relative="1" as="geometry">
            <mxPoint x="520" y="441.64" as="sourcePoint" />
            <mxPoint x="530" y="594.0600000000001" as="targetPoint" />
          </mxGeometry>
        </mxCell>
        <mxCell id="C-UwI_2ZO8aWPsouuYlW-186" value="&lt;span style=&quot;caret-color: rgb(0, 0, 0); font-family: -webkit-standard; font-size: medium; text-align: start;&quot;&gt;status&lt;/span&gt;" style="ellipse;whiteSpace=wrap;html=1;strokeColor=#d6b656;align=center;verticalAlign=middle;fontFamily=Helvetica;fontSize=12;fontStyle=0;horizontal=1;fillColor=#fff2cc;" vertex="1" parent="1">
          <mxGeometry x="350" y="351.26" width="100" height="30.42" as="geometry" />
        </mxCell>
        <mxCell id="C-UwI_2ZO8aWPsouuYlW-187" value="" style="endArrow=none;html=1;rounded=0;fontFamily=Helvetica;fontSize=12;fontColor=default;fontStyle=0;horizontal=1;exitX=0;exitY=0;exitDx=0;exitDy=0;entryX=0.5;entryY=1;entryDx=0;entryDy=0;" edge="1" parent="1" target="C-UwI_2ZO8aWPsouuYlW-186" source="C-UwI_2ZO8aWPsouuYlW-175">
          <mxGeometry width="50" height="50" relative="1" as="geometry">
            <mxPoint x="260" y="334.21999999999997" as="sourcePoint" />
            <mxPoint x="270" y="486.64000000000016" as="targetPoint" />
          </mxGeometry>
        </mxCell>
        <mxCell id="C-UwI_2ZO8aWPsouuYlW-188" value="&lt;span style=&quot;caret-color: rgb(0, 0, 0); font-family: -webkit-standard; font-size: medium; text-align: start;&quot;&gt;payment_method&lt;/span&gt;" style="ellipse;whiteSpace=wrap;html=1;strokeColor=#d6b656;align=center;verticalAlign=middle;fontFamily=Helvetica;fontSize=12;fontStyle=0;horizontal=1;fillColor=#fff2cc;" vertex="1" parent="1">
          <mxGeometry x="270" y="419.58" width="120" height="40.42" as="geometry" />
        </mxCell>
        <mxCell id="C-UwI_2ZO8aWPsouuYlW-189" value="" style="endArrow=none;html=1;rounded=0;fontFamily=Helvetica;fontSize=12;fontColor=default;fontStyle=0;horizontal=1;exitX=0;exitY=0.25;exitDx=0;exitDy=0;entryX=1;entryY=0.5;entryDx=0;entryDy=0;" edge="1" parent="1" target="C-UwI_2ZO8aWPsouuYlW-188" source="C-UwI_2ZO8aWPsouuYlW-175">
          <mxGeometry width="50" height="50" relative="1" as="geometry">
            <mxPoint x="400" y="448.68" as="sourcePoint" />
            <mxPoint x="390.0000000000009" y="398.46999999999997" as="targetPoint" />
          </mxGeometry>
        </mxCell>
        <mxCell id="C-UwI_2ZO8aWPsouuYlW-190" value="&lt;span style=&quot;caret-color: rgb(0, 0, 0); font-family: -webkit-standard; font-size: medium; text-align: start;&quot;&gt;created_at&lt;/span&gt;" style="ellipse;whiteSpace=wrap;html=1;strokeColor=#d6b656;align=center;verticalAlign=middle;fontFamily=Helvetica;fontSize=12;fontStyle=0;horizontal=1;fillColor=#fff2cc;" vertex="1" parent="1">
          <mxGeometry x="270" y="480" width="120" height="40.42" as="geometry" />
        </mxCell>
        <mxCell id="C-UwI_2ZO8aWPsouuYlW-191" value="" style="endArrow=none;html=1;rounded=0;fontFamily=Helvetica;fontSize=12;fontColor=default;fontStyle=0;horizontal=1;exitX=0;exitY=0.5;exitDx=0;exitDy=0;entryX=1;entryY=0.5;entryDx=0;entryDy=0;" edge="1" parent="1" target="C-UwI_2ZO8aWPsouuYlW-190" source="C-UwI_2ZO8aWPsouuYlW-175">
          <mxGeometry width="50" height="50" relative="1" as="geometry">
            <mxPoint x="430" y="454.1" as="sourcePoint" />
            <mxPoint x="390.0000000000009" y="458.89000000000004" as="targetPoint" />
          </mxGeometry>
        </mxCell>
        <mxCell id="C-UwI_2ZO8aWPsouuYlW-193" value="&lt;span style=&quot;caret-color: rgb(0, 0, 0); font-family: -webkit-standard; font-size: medium; text-align: start;&quot;&gt;paid_at&lt;/span&gt;" style="ellipse;whiteSpace=wrap;html=1;strokeColor=#d6b656;align=center;verticalAlign=middle;fontFamily=Helvetica;fontSize=12;fontStyle=0;horizontal=1;fillColor=#fff2cc;" vertex="1" parent="1">
          <mxGeometry x="580" y="930" width="80" height="30" as="geometry" />
        </mxCell>
        <mxCell id="C-UwI_2ZO8aWPsouuYlW-194" value="" style="endArrow=none;html=1;rounded=0;fontFamily=Helvetica;fontSize=12;fontColor=default;fontStyle=0;horizontal=1;entryX=1;entryY=0.5;entryDx=0;entryDy=0;exitX=0.75;exitY=1;exitDx=0;exitDy=0;" edge="1" parent="1" target="C-UwI_2ZO8aWPsouuYlW-193" source="C-UwI_2ZO8aWPsouuYlW-158">
          <mxGeometry width="50" height="50" relative="1" as="geometry">
            <mxPoint x="490" y="741.0799999999999" as="sourcePoint" />
            <mxPoint x="430" y="1064" as="targetPoint" />
          </mxGeometry>
        </mxCell>
        <mxCell id="C-UwI_2ZO8aWPsouuYlW-211" value="&lt;span style=&quot;caret-color: rgb(0, 0, 0); color: rgb(0, 0, 0); font-family: -webkit-standard; font-size: medium; font-style: normal; font-variant-caps: normal; font-weight: 400; letter-spacing: normal; orphans: auto; text-align: start; text-indent: 0px; text-transform: none; white-space: normal; widows: auto; word-spacing: 0px; -webkit-text-stroke-width: 0px; text-decoration: none; display: inline !important; float: none;&quot;&gt;id&lt;/span&gt;" style="ellipse;whiteSpace=wrap;html=1;strokeColor=#d6b656;align=center;verticalAlign=middle;fontFamily=Helvetica;fontSize=12;fontStyle=0;horizontal=1;fillColor=#fff2cc;" vertex="1" parent="1">
          <mxGeometry x="867.5" y="720" width="80" height="30" as="geometry" />
        </mxCell>
        <mxCell id="C-UwI_2ZO8aWPsouuYlW-212" value="&lt;span style=&quot;caret-color: rgb(0, 0, 0); font-family: -webkit-standard; font-size: medium; text-align: start;&quot;&gt;PaymentLog&lt;/span&gt;" style="rounded=0;whiteSpace=wrap;html=1;strokeColor=#82b366;align=center;verticalAlign=middle;fontFamily=Helvetica;fontSize=12;fontStyle=0;horizontal=1;fillColor=#d5e8d4;" vertex="1" parent="1">
          <mxGeometry x="680" y="741.9999999999999" width="120" height="60" as="geometry" />
        </mxCell>
        <mxCell id="C-UwI_2ZO8aWPsouuYlW-213" value="" style="endArrow=none;html=1;rounded=0;fontFamily=Helvetica;fontSize=12;fontColor=default;fontStyle=0;horizontal=1;entryX=0.5;entryY=1;entryDx=0;entryDy=0;exitX=1;exitY=0.25;exitDx=0;exitDy=0;" edge="1" parent="1" source="C-UwI_2ZO8aWPsouuYlW-212" target="C-UwI_2ZO8aWPsouuYlW-211">
          <mxGeometry width="50" height="50" relative="1" as="geometry">
            <mxPoint x="841.5" y="892.0799999999999" as="sourcePoint" />
            <mxPoint x="891.5" y="842.0799999999999" as="targetPoint" />
          </mxGeometry>
        </mxCell>
        <mxCell id="C-UwI_2ZO8aWPsouuYlW-214" value="&lt;span style=&quot;caret-color: rgb(0, 0, 0); font-family: -webkit-standard; font-size: medium; text-align: start;&quot;&gt;order_id&lt;/span&gt;" style="ellipse;whiteSpace=wrap;html=1;strokeColor=#d6b656;align=center;verticalAlign=middle;fontFamily=Helvetica;fontSize=12;fontStyle=0;horizontal=1;fillColor=#fff2cc;" vertex="1" parent="1">
          <mxGeometry x="787.5" y="676" width="80" height="30" as="geometry" />
        </mxCell>
        <mxCell id="C-UwI_2ZO8aWPsouuYlW-215" value="" style="endArrow=none;html=1;rounded=0;fontFamily=Helvetica;fontSize=12;fontColor=default;fontStyle=0;horizontal=1;entryX=0.5;entryY=1;entryDx=0;entryDy=0;exitX=0.5;exitY=0;exitDx=0;exitDy=0;" edge="1" parent="1" source="C-UwI_2ZO8aWPsouuYlW-212" target="C-UwI_2ZO8aWPsouuYlW-214">
          <mxGeometry width="50" height="50" relative="1" as="geometry">
            <mxPoint x="753.9799999999999" y="722.0799999999999" as="sourcePoint" />
            <mxPoint x="811.5" y="831" as="targetPoint" />
          </mxGeometry>
        </mxCell>
        <mxCell id="C-UwI_2ZO8aWPsouuYlW-216" value="&lt;span style=&quot;caret-color: rgb(0, 0, 0); font-family: -webkit-standard; font-size: medium; text-align: start;&quot;&gt;event&lt;/span&gt;" style="ellipse;whiteSpace=wrap;html=1;strokeColor=#d6b656;align=center;verticalAlign=middle;fontFamily=Helvetica;fontSize=12;fontStyle=0;horizontal=1;fillColor=#fff2cc;" vertex="1" parent="1">
          <mxGeometry x="895" y="791.0800000000002" width="80" height="30" as="geometry" />
        </mxCell>
        <mxCell id="C-UwI_2ZO8aWPsouuYlW-217" value="" style="endArrow=none;html=1;rounded=0;fontFamily=Helvetica;fontSize=12;fontColor=default;fontStyle=0;horizontal=1;entryX=0;entryY=0.5;entryDx=0;entryDy=0;exitX=1;exitY=0.5;exitDx=0;exitDy=0;" edge="1" parent="1" source="C-UwI_2ZO8aWPsouuYlW-212" target="C-UwI_2ZO8aWPsouuYlW-216">
          <mxGeometry width="50" height="50" relative="1" as="geometry">
            <mxPoint x="1006.5" y="825.9200000000001" as="sourcePoint" />
            <mxPoint x="1056.5" y="851" as="targetPoint" />
          </mxGeometry>
        </mxCell>
        <mxCell id="C-UwI_2ZO8aWPsouuYlW-218" value="&lt;span style=&quot;caret-color: rgb(0, 0, 0); font-family: -webkit-standard; font-size: medium; text-align: start;&quot;&gt;raw_payload&lt;/span&gt;" style="ellipse;whiteSpace=wrap;html=1;strokeColor=#d6b656;align=center;verticalAlign=middle;fontFamily=Helvetica;fontSize=12;fontStyle=0;horizontal=1;fillColor=#fff2cc;" vertex="1" parent="1">
          <mxGeometry x="870" y="850" width="110" height="30" as="geometry" />
        </mxCell>
        <mxCell id="C-UwI_2ZO8aWPsouuYlW-219" value="" style="endArrow=none;html=1;rounded=0;fontFamily=Helvetica;fontSize=12;fontColor=default;fontStyle=0;horizontal=1;entryX=0;entryY=0.5;entryDx=0;entryDy=0;exitX=1;exitY=0.75;exitDx=0;exitDy=0;" edge="1" parent="1" source="C-UwI_2ZO8aWPsouuYlW-212" target="C-UwI_2ZO8aWPsouuYlW-218">
          <mxGeometry width="50" height="50" relative="1" as="geometry">
            <mxPoint x="864.0084394499077" y="883" as="sourcePoint" />
            <mxPoint x="842.5042197249538" y="981" as="targetPoint" />
          </mxGeometry>
        </mxCell>
        <mxCell id="C-UwI_2ZO8aWPsouuYlW-220" value="&lt;span style=&quot;caret-color: rgb(0, 0, 0); font-family: -webkit-standard; font-size: medium; text-align: start;&quot;&gt;created_at&lt;/span&gt;" style="ellipse;whiteSpace=wrap;html=1;strokeColor=#d6b656;align=center;verticalAlign=middle;fontFamily=Helvetica;fontSize=12;fontStyle=0;horizontal=1;fillColor=#fff2cc;" vertex="1" parent="1">
          <mxGeometry x="820.0042197249538" y="900" width="80" height="30" as="geometry" />
        </mxCell>
        <mxCell id="C-UwI_2ZO8aWPsouuYlW-221" value="" style="endArrow=none;html=1;rounded=0;fontFamily=Helvetica;fontSize=12;fontColor=default;fontStyle=0;horizontal=1;entryX=0;entryY=0.5;entryDx=0;entryDy=0;exitX=0.75;exitY=1;exitDx=0;exitDy=0;" edge="1" parent="1" source="C-UwI_2ZO8aWPsouuYlW-212" target="C-UwI_2ZO8aWPsouuYlW-220">
          <mxGeometry width="50" height="50" relative="1" as="geometry">
            <mxPoint x="794.0042197249538" y="822" as="sourcePoint" />
            <mxPoint x="812.5042197249538" y="1026" as="targetPoint" />
          </mxGeometry>
        </mxCell>
      </root>
    </mxGraphModel>
  </diagram>
</mxfile>
